<svg width="94" height="94" viewBox="0 0 94 94" fill="none" xmlns="http://www.w3.org/2000/svg">
<path d="M4.27344 85.5609L47.4771 42.3706" stroke="#066460" stroke-width="4"/>
<path d="M8.46777 81.3759L15.8811 88.7886" stroke="#066460" stroke-width="4"/>
<path d="M18.79 71.0548L26.2034 78.4674" stroke="#066460" stroke-width="4"/>
<path d="M13.6289 76.2153L18.1426 80.7286" stroke="#066460" stroke-width="4"/>
<path d="M49.5011 41.0303C46.0178 44.5042 40.3825 44.5042 36.9084 41.0303C33.4342 37.5474 33.4342 31.9127 36.9084 28.4389C40.3825 24.965 46.0269 24.9559 49.5011 28.4389C52.9752 31.9127 52.9752 37.5565 49.5011 41.0303Z" stroke="#066460" stroke-width="4"/>
<path d="M62.3761 53.9045C58.9019 57.3783 53.2575 57.3783 49.7834 53.9045C46.3092 50.4306 46.3092 44.7868 49.7834 41.313C53.2575 37.8392 58.9019 37.8392 62.3761 41.313C65.8502 44.7868 65.8502 50.4306 62.3761 53.9045Z" stroke="#066460" stroke-width="4"/>
<path d="M67.4102 35.9974C63.9361 39.4712 58.2917 39.4712 54.8175 35.9974C51.3434 32.5236 51.3434 26.8798 54.8175 23.4059C58.2917 19.9321 63.9361 19.9321 67.4102 23.4059C70.8844 26.8798 70.8844 32.5145 67.4102 35.9974Z" stroke="#066460" stroke-width="4"/>
<path d="M23.9783 85.1689C41.1121 95.2895 63.5528 92.9827 78.2701 78.2668C95.723 60.8248 95.723 32.5327 78.2701 15.0815C60.8172 -2.36051 32.5315 -2.36051 15.0786 15.0815C0.224512 29.9342 -1.97306 52.6462 8.46767 69.833" stroke="#066460" stroke-width="4" stroke-dasharray="4 4"/>
</svg>
