<svg width="91" height="92" viewBox="0 0 91 92" fill="none" xmlns="http://www.w3.org/2000/svg">
<path d="M81.7774 2C85.4049 2 88.3454 4.93313 88.3454 8.54242V15.6605H80.7148" stroke="#066460" stroke-width="4"/>
<path d="M14.1189 74.0398V8.54242C14.1189 5.17983 16.6472 2.42032 19.9174 2.04568C21.7037 2.04568 78.0945 2.05482 81.0075 2.04568C77.7464 2.42032 75.209 5.18897 75.209 8.54242V81.7426H75.1907L75.209 82.8391C75.209 86.2017 72.6533 88.9612 69.3922 89.3359C67.606 89.3359 11.2151 89.3267 8.29297 89.3359" stroke="#066460" stroke-width="4"/>
<path d="M63.0901 79.5588V82.8483C63.0901 86.2109 65.6275 88.9704 68.8886 89.345C65.9756 89.3359 9.58473 89.345 7.79847 89.345C4.5374 88.9704 2 86.2018 2 82.8483V79.5588H63.0901V79.5588Z" stroke="#066460" stroke-width="4"/>
<path d="M75.209 8.54242C75.209 4.92399 78.1494 2 81.7769 2C85.4044 2 88.3449 4.93313 88.3449 8.54242V16.6199" stroke="#066460" stroke-width="4"/>
<path d="M63.0898 77.5486V82.8483C63.0898 86.2109 66.0211 89.345 69.2731 89.345" stroke="#066460" stroke-width="4"/>
<path d="M61.8258 61.558V71.4995L57.209 68.3106L52.583 71.4995V61.558" stroke="#066460" stroke-width="4"/>
<path d="M63.6032 57.1811C63.6032 60.7082 60.7452 63.5591 57.2093 63.5591C53.6734 63.5591 50.8154 60.7082 50.8154 57.1811C50.8154 53.6632 53.6826 50.8032 57.2093 50.8032C60.736 50.8032 63.6032 53.6632 63.6032 57.1811Z" stroke="#066460" stroke-width="4"/>
<path d="M57.209 55.5547V59.2097" stroke="#066460" stroke-width="4"/>
<path d="M31.542 15.2585H55.1481" stroke="#066460" stroke-width="4"/>
<path d="M23.4717 24.4416H63.2274" stroke="#066460" stroke-width="4"/>
<path d="M23.4717 33.4786H63.2274" stroke="#066460" stroke-width="4"/>
<path d="M23.4717 42.5155H63.2274" stroke="#066460" stroke-width="4"/>
<path d="M23.4717 51.5525H47.1053" stroke="#066460" stroke-width="4"/>
<path d="M23.4717 60.5894H39.1633" stroke="#066460" stroke-width="4"/>
</svg>
