<svg width="108" height="95" viewBox="0 0 108 95" fill="none" xmlns="http://www.w3.org/2000/svg">
<path d="M82.5001 44.7011C82.5001 60.2711 69.8801 72.8911 54.3101 72.8911C38.7401 72.8911 26.1201 60.2711 26.1201 44.7011C26.1201 29.1311 38.7401 16.5111 54.3101 16.5111C69.8701 16.5111 82.5001 29.1411 82.5001 44.7011Z" stroke="#066460" stroke-width="4"/>
<path d="M70.61 44.7011C70.61 60.2711 63.31 72.8911 54.31 72.8911C45.3 72.8911 38 60.2711 38 44.7011C38 29.1311 45.3 16.5111 54.31 16.5111C63.31 16.5111 70.61 29.1411 70.61 44.7011Z" stroke="#066460" stroke-width="4"/>
<path d="M54.3105 72.9011C69.8805 72.9011 82.5005 60.2811 82.5005 44.7111C82.5005 29.1411 69.8805 16.5211 54.3105 16.5211V72.9011Z" stroke="#066460" stroke-width="4"/>
<path d="M26.1104 44.7011C26.1104 48.2011 26.7804 51.5411 27.9404 54.6411H80.6504C81.8204 51.5411 82.4903 48.2111 82.4903 44.7011C82.4903 41.2011 81.8204 37.8611 80.6504 34.7611H27.9504C26.7804 37.8611 26.1104 41.2011 26.1104 44.7011Z" stroke="#066460" stroke-width="4"/>
<path d="M30.3697 4.95111C28.0897 7.29111 27.2297 10.4811 27.7397 13.4711C30.7397 13.9111 33.9097 12.9611 36.1897 10.6211C38.4697 8.28111 39.3397 5.09111 38.8197 2.10111C35.8197 1.67111 32.6497 2.61111 30.3697 4.95111Z" stroke="#066460" stroke-width="4"/>
<path d="M13.9197 17.8811C14.2097 21.0411 16.0297 23.6911 18.5697 25.1911C20.7897 23.2511 22.0797 20.3111 21.7797 17.1511C21.4897 13.9911 19.6697 11.3411 17.1397 9.84111C14.9197 11.7811 13.6197 14.7211 13.9197 17.8811Z" stroke="#066460" stroke-width="4"/>
<path d="M5.81988 38.2511C7.41988 40.9911 10.1799 42.6311 13.1199 42.9111C14.3099 40.2111 14.2399 37.0011 12.6399 34.2611C11.0399 31.5211 8.26988 29.8911 5.33988 29.6011C4.14988 32.3011 4.21988 35.5111 5.81988 38.2511Z" stroke="#066460" stroke-width="4"/>
<path d="M7.1 60.1211C9.71 61.9311 12.9 62.2411 15.68 61.2611C15.62 58.3211 14.2 55.4411 11.59 53.6311C8.98 51.8311 5.79 51.5111 3 52.4911C3.07 55.4411 4.49 58.3211 7.1 60.1211Z" stroke="#066460" stroke-width="4"/>
<path d="M17.4996 79.4211C20.6296 79.9511 23.6596 78.8911 25.7596 76.8211C24.4596 74.1811 21.9596 72.1711 18.8196 71.6311C15.6896 71.1011 12.6596 72.1611 10.5596 74.2211C11.8596 76.8711 14.3696 78.8811 17.4996 79.4211Z" stroke="#066460" stroke-width="4"/>
<path d="M35.0698 92.5111C38.1298 91.6711 40.4298 89.4311 41.4598 86.6711C39.1598 84.8311 36.0498 84.0611 32.9798 84.9011C29.9198 85.7411 27.6298 87.9811 26.5898 90.7411C28.8998 92.5811 32.0098 93.3411 35.0698 92.5111Z" stroke="#066460" stroke-width="4"/>
<path d="M48.6104 85.8511C28.0104 82.2611 13.0604 63.6011 14.5304 42.2911C15.3204 30.9111 20.6404 20.9211 28.6204 13.9711" stroke="#066460" stroke-width="4"/>
<path d="M78.2403 4.95111C80.5203 7.29111 81.3803 10.4811 80.8703 13.4711C77.8703 13.9111 74.7003 12.9611 72.4203 10.6211C70.1403 8.28111 69.2703 5.09111 69.7903 2.10111C72.8003 1.67111 75.9603 2.61111 78.2403 4.95111Z" stroke="#066460" stroke-width="4"/>
<path d="M94.7005 17.8811C94.4005 21.0411 92.5905 23.6911 90.0505 25.1911C87.8305 23.2511 86.5405 20.3111 86.8305 17.1511C87.1305 13.9911 88.9405 11.3411 91.4805 9.84111C93.7005 11.7811 94.9905 14.7211 94.7005 17.8811Z" stroke="#066460" stroke-width="4"/>
<path d="M102.79 38.2511C101.19 40.9911 98.4303 42.6311 95.4903 42.9111C94.3003 40.2111 94.3703 37.0011 95.9703 34.2611C97.5703 31.5211 100.33 29.8911 103.27 29.6011C104.46 32.3011 104.39 35.5111 102.79 38.2511Z" stroke="#066460" stroke-width="4"/>
<path d="M101.52 60.1211C98.9104 61.9311 95.7204 62.2411 92.9404 61.2611C93.0004 58.3211 94.4204 55.4411 97.0304 53.6311C99.6404 51.8211 102.83 51.5111 105.61 52.4911C105.55 55.4411 104.13 58.3211 101.52 60.1211Z" stroke="#066460" stroke-width="4"/>
<path d="M91.1204 79.4211C87.9904 79.9611 84.9604 78.8911 82.8604 76.8211C84.1604 74.1811 86.6704 72.1711 89.8004 71.6411C92.9304 71.1111 95.9503 72.1711 98.0603 74.2311C96.7503 76.8711 94.2504 78.8811 91.1204 79.4211Z" stroke="#066460" stroke-width="4"/>
<path d="M73.5404 92.5111C70.4804 91.6711 68.1804 89.4311 67.1504 86.6711C69.4504 84.8311 72.5604 84.0611 75.6304 84.9011C78.6904 85.7411 80.9804 87.9811 82.0204 90.7411C79.7204 92.5811 76.6004 93.3411 73.5404 92.5111Z" stroke="#066460" stroke-width="4"/>
<path d="M60 85.8611C80.59 82.2711 95.55 63.6111 94.08 42.3011C93.3 30.9111 87.97 20.9211 79.99 13.9711" stroke="#066460" stroke-width="4"/>
</svg>
