<svg width="103" height="94" viewBox="0 0 103 94" fill="none" xmlns="http://www.w3.org/2000/svg">
<path d="M94.0943 48.2228V78.9742H8.42285V27.8121C8.42285 25.4567 10.3441 23.5444 12.7105 23.5444H30.8261" stroke="#066460" stroke-width="4" stroke-miterlimit="10" stroke-linecap="square"/>
<path d="M98.8525 78.9742H3.67385C2.75035 78.9742 2 79.7211 2 80.6403V88.4861C2 90.2998 3.47596 91.7689 5.29823 91.7689H97.2281C99.0504 91.7689 100.526 90.2998 100.526 88.4861V80.6403C100.526 79.7211 99.776 78.9742 98.8525 78.9742Z" stroke="#066460" stroke-width="4" stroke-miterlimit="10" stroke-linecap="square"/>
<path d="M46.9795 85.3674H57.6905" stroke="#066460" stroke-width="4" stroke-miterlimit="10" stroke-linecap="square"/>
<path d="M36.2686 28.4358V8.62418C36.2686 5.09519 39.1463 2.23096 42.6919 2.23096H94.0948C97.6404 2.23096 100.518 5.09519 100.518 8.62418V36.3391C100.518 39.8681 97.6404 42.7323 94.0948 42.7323H76.9605L61.3433 58.2845C59.9911 59.6304 57.6905 58.6784 57.6905 56.7744V42.7323H50.5829" stroke="#066460" stroke-width="4" stroke-miterlimit="10" stroke-linecap="square"/>
<path d="M53.4034 74.7148V69.1587C53.4034 63.2169 41.0432 59.7946 36.2691 59.7946C31.4949 59.7946 19.1348 63.2087 19.1348 69.1587V74.7148" stroke="#066460" stroke-width="4" stroke-miterlimit="10" stroke-linecap="square"/>
<path d="M36.2683 34.2053C31.5601 34.2053 27.7012 38.0051 27.7012 42.6913V44.9071C27.7012 49.5933 31.5601 53.3931 36.2683 53.3931C40.9765 53.3931 44.8355 49.5933 44.8355 44.9071V42.6913C44.8355 38.0051 40.9765 34.2053 36.2683 34.2053Z" stroke="#066460" stroke-width="4" stroke-miterlimit="10" stroke-linecap="square"/>
<path d="M58.8115 23.5526H60.9471" stroke="#066460" stroke-width="4" stroke-miterlimit="10" stroke-linecap="square"/>
<path d="M67.4785 23.5526H69.6141" stroke="#066460" stroke-width="4" stroke-miterlimit="10" stroke-linecap="square"/>
<path d="M75.9463 23.5526H78.4859" stroke="#066460" stroke-width="4" stroke-miterlimit="10" stroke-linecap="square"/>
</svg>
