<svg width="173" height="60" viewBox="0 0 173 60" fill="none" xmlns="http://www.w3.org/2000/svg">
<path d="M1.18861 59.1726H0V34.3489H8.59457C10.8232 34.3489 12.5947 35.0232 13.8976 36.3718C15.2005 37.7204 15.852 39.389 15.852 41.3777C15.852 43.3435 15.1891 45.0007 13.8747 46.3607C12.5604 47.7322 10.8004 48.4065 8.58314 48.4065H1.18861V59.1726ZM8.56028 47.2979C10.3661 47.2979 11.8175 46.7493 12.9147 45.6407C14.0119 44.5321 14.5491 43.1149 14.5491 41.3777C14.5491 39.6405 14.0005 38.2233 12.9147 37.1147C11.829 36.0175 10.3775 35.4575 8.56028 35.4575H1.18861V47.2979H8.56028Z" fill="white"/>
<path d="M38.436 59.173H37.0531L34.2987 52.5099H20.4468L17.6925 59.173H16.3096L26.6642 34.3379H28.0814L38.436 59.173ZM33.853 51.3899L27.3728 35.7208L20.8926 51.3899H33.853Z" fill="white"/>
<path d="M59.2252 59.1726H57.6937L50.1392 48.4522H44.1847V59.1726H42.9961V34.3489H51.5564C53.6707 34.3489 55.4194 34.9775 56.8023 36.2347C58.1966 37.4918 58.8823 39.2062 58.8823 41.3891C58.8823 43.572 58.1852 45.2978 56.7794 46.5664C55.3736 47.835 53.6364 48.4636 51.5449 48.4636L59.2252 59.1726ZM51.5564 47.3322C53.3622 47.3322 54.8251 46.7721 55.9337 45.6521C57.0423 44.5321 57.5909 43.1034 57.5909 41.3662C57.5909 39.629 57.0423 38.2119 55.9337 37.1033C54.8251 36.0175 53.3736 35.4575 51.5564 35.4575H44.1847V47.3322H51.5564Z" fill="white"/>
<path d="M71.8082 59.173H70.6196V35.4579H62.2422V34.3379H80.2313V35.4579H71.8196V59.173H71.8082Z" fill="white"/>
<path d="M104.243 59.1726H103.055L86.2999 36.2804V59.1726H85.1113V34.3489H86.2999L103.055 57.0239V34.3489H104.243V59.1726Z" fill="white"/>
<path d="M126.622 59.1726H111.433V34.3489H126.622V35.4575H112.621V45.8464H126.359V46.9664H112.621V58.0639H126.622V59.1726Z" fill="white"/>
<path d="M148.188 59.1726H146.657L139.102 48.4522H133.148V59.1726H131.959V34.3489H140.519C142.634 34.3489 144.382 34.9775 145.765 36.2347C147.159 37.4918 147.845 39.2062 147.845 41.3891C147.845 43.572 147.148 45.2978 145.742 46.5664C144.337 47.835 142.599 48.4636 140.508 48.4636L148.188 59.1726ZM140.519 47.3322C142.325 47.3322 143.788 46.7721 144.897 45.6521C146.005 44.5321 146.554 43.1034 146.554 41.3662C146.554 39.629 146.005 38.2119 144.897 37.1033C143.788 35.9946 142.336 35.4461 140.519 35.4461H133.148V47.3207H140.519V47.3322Z" fill="white"/>
<path d="M160.874 59.6183C159.011 59.6183 157.342 59.2641 155.845 58.544C154.359 57.824 153.136 56.864 152.199 55.6754L153.171 54.8182C155.182 57.2754 157.754 58.4983 160.874 58.4983C162.234 58.4983 163.422 58.3154 164.405 57.9611C165.4 57.6069 166.143 57.1268 166.634 56.544C167.125 55.9611 167.491 55.3668 167.708 54.761C167.937 54.1553 168.04 53.5267 168.04 52.8867C168.04 51.6181 167.663 50.5552 166.92 49.7095C166.177 48.8523 165.24 48.2351 164.131 47.8694C163.011 47.4922 161.8 47.1037 160.497 46.6922C159.194 46.2808 157.982 45.8808 156.862 45.5036C155.742 45.115 154.816 44.475 154.074 43.5835C153.331 42.6921 152.954 41.5835 152.954 40.2691C152.954 38.3376 153.708 36.7947 155.228 35.6518C156.737 34.5089 158.577 33.9375 160.737 33.9375C164.211 33.9375 166.885 35.1033 168.783 37.4348L167.857 38.2919C166.2 36.1319 163.822 35.0575 160.748 35.0575C158.908 35.0575 157.377 35.549 156.131 36.5319C154.885 37.5148 154.268 38.7605 154.268 40.2691C154.268 41.2177 154.542 42.0178 155.102 42.6921C155.662 43.3664 156.382 43.8807 157.262 44.2578C158.142 44.635 159.125 44.9779 160.199 45.2864C161.274 45.595 162.348 45.9265 163.422 46.2922C164.485 46.6465 165.468 47.0808 166.348 47.5722C167.228 48.0751 167.948 48.7723 168.508 49.6752C169.068 50.578 169.343 51.6524 169.343 52.8981C169.343 53.6639 169.205 54.4182 168.931 55.1496C168.657 55.8811 168.223 56.6011 167.628 57.3097C167.034 58.0183 166.154 58.5783 164.988 59.0012C163.834 59.4126 162.462 59.6183 160.874 59.6183Z" fill="white"/>
<path d="M131.867 25.5255H126.919L125.09 20.7597H113.695L111.867 25.5255H106.918L116.678 0.69043H122.118L131.867 25.5255ZM123.867 16.9195L119.398 5.07915L114.93 16.9195H123.867Z" fill="#17A9A3"/>
<path d="M150.211 25.5255H134.907V0.69043H139.262V21.6854H150.211V25.5255Z" fill="#17A9A3"/>
<path d="M163.183 25.9715C158.908 25.9715 155.548 24.6571 153.091 22.0285L155.514 18.6798C157.651 20.9656 160.268 22.1085 163.377 22.1085C165.045 22.1085 166.291 21.777 167.114 21.1027C167.948 20.4284 168.36 19.6398 168.36 18.7141C168.36 17.7655 167.868 17.0226 166.874 16.4626C165.88 15.9026 164.68 15.4683 163.263 15.1368C161.845 14.8168 160.428 14.4282 159 13.9825C157.571 13.5368 156.36 12.7825 155.365 11.7081C154.371 10.6452 153.879 9.26234 153.879 7.57086C153.879 5.49079 154.714 3.75359 156.394 2.38212C158.062 0.999213 160.234 0.313477 162.92 0.313477C166.748 0.313477 169.846 1.4678 172.234 3.77645L169.743 7.01084C167.857 5.12506 165.457 4.17646 162.554 4.17646C161.263 4.17646 160.234 4.45076 159.48 5.01077C158.725 5.57079 158.348 6.3251 158.348 7.26228C158.348 7.87944 158.611 8.40517 159.148 8.82804C159.685 9.25091 160.371 9.59378 161.217 9.85665C162.063 10.1195 163 10.371 164.028 10.6224C165.057 10.8738 166.086 11.171 167.114 11.5367C168.143 11.9024 169.08 12.3367 169.926 12.8625C170.771 13.3882 171.457 14.1082 171.994 15.0225C172.531 15.9368 172.794 17.034 172.794 18.3026C172.794 20.5427 171.983 22.3713 170.371 23.8114C168.76 25.2514 166.36 25.9715 163.183 25.9715Z" fill="#17A9A3"/>
</svg>
