<svg width="100" height="89" viewBox="0 0 100 89" fill="none" xmlns="http://www.w3.org/2000/svg">
<g clip-path="url(#clip0)">
<path d="M17.0703 29.92L49.9303 11.8L82.7803 29.92" stroke="#066460" stroke-width="4"/>
<path d="M96.5203 29.77H3.32031V37.41H96.5203V29.77Z" stroke="#066460" stroke-width="4"/>
<path d="M25.5203 74.37H3.32031V86.41H25.5203V74.37Z" stroke="#066460" stroke-width="4"/>
<path d="M96.5203 74.37H74.3203V86.41H96.5203V74.37Z" stroke="#066460" stroke-width="4"/>
<path d="M74.0006 83.6799H25.8506" stroke="#066460" stroke-width="4"/>
<path d="M74.0006 76.6799H25.8506" stroke="#066460" stroke-width="4"/>
<path d="M49.9202 1.73999L98.8602 29.78H49.9202H0.990234L49.9202 1.73999Z" stroke="#066460" stroke-width="4" stroke-linejoin="bevel"/>
<path d="M9.7998 42.25V69.49" stroke="#066460" stroke-width="4"/>
<path d="M17.7998 42.25V69.49" stroke="#066460" stroke-width="4"/>
<path d="M33.8799 42.25V69.49" stroke="#066460" stroke-width="4"/>
<path d="M41.8799 42.25V69.49" stroke="#066460" stroke-width="4"/>
<path d="M57.9697 42.25V69.49" stroke="#066460" stroke-width="4"/>
<path d="M65.9697 42.25V69.49" stroke="#066460" stroke-width="4"/>
<path d="M82.0498 42.25V69.49" stroke="#066460" stroke-width="4"/>
<path d="M90.0498 42.25V69.49" stroke="#066460" stroke-width="4"/>
</g>
<defs>
<clipPath id="clip0">
<rect width="99.85" height="88.41" fill="white"/>
</clipPath>
</defs>
</svg>
