<svg width="107" height="95" viewBox="0 0 107 95" fill="none" xmlns="http://www.w3.org/2000/svg">
<g clip-path="url(#clip0)">
<path d="M29.4 4.95C27.12 7.29 26.26 10.48 26.77 13.47C29.77 13.91 32.94 12.96 35.22 10.62C37.5 8.28 38.36 5.09 37.85 2.1C34.84 1.66 31.68 2.61 29.4 4.95Z" stroke="#066460" stroke-width="4"/>
<path d="M12.9493 17.88C13.2393 21.04 15.0593 23.69 17.5993 25.19C19.8193 23.25 21.1093 20.31 20.8093 17.15C20.5193 13.99 18.6993 11.34 16.1693 9.84003C13.9393 11.78 12.6493 14.72 12.9493 17.88Z" stroke="#066460" stroke-width="4"/>
<path d="M4.84918 38.25C6.44918 40.99 9.20918 42.63 12.1492 42.91C13.3392 40.21 13.2692 37.01 11.6692 34.26C10.0692 31.52 7.29918 29.89 4.36918 29.6C3.17918 32.3 3.24918 35.51 4.84918 38.25Z" stroke="#066460" stroke-width="4"/>
<path d="M6.11953 60.13C8.72953 61.94 11.9195 62.25 14.6995 61.27C14.6395 58.32 13.2195 55.45 10.6095 53.64C7.99953 51.84 4.80953 51.52 2.01953 52.5C2.09953 55.44 3.50953 58.32 6.11953 60.13Z" stroke="#066460" stroke-width="4"/>
<path d="M16.5298 79.4199C19.6598 79.9499 22.6898 78.8899 24.7898 76.8199C23.4898 74.1799 20.9898 72.1699 17.8498 71.6299C14.7198 71.0999 11.6898 72.16 9.58984 74.23C10.8898 76.88 13.3898 78.8799 16.5298 79.4199Z" stroke="#066460" stroke-width="4"/>
<path d="M34.0991 92.51C37.1591 91.67 39.4591 89.43 40.4891 86.66C38.1891 84.82 35.0791 84.05 32.0091 84.89C28.9491 85.73 26.6591 87.97 25.6191 90.73C27.9191 92.58 31.0391 93.34 34.0991 92.51Z" stroke="#066460" stroke-width="4"/>
<path d="M47.6396 85.85C27.0396 82.26 12.0897 63.6 13.5597 42.29C14.3497 30.91 19.6796 20.92 27.6496 13.97" stroke="#066460" stroke-width="4"/>
<path d="M77.2696 4.95001C79.5496 7.29001 80.4196 10.48 79.8996 13.47C76.8996 13.91 73.7296 12.96 71.4496 10.62C69.1696 8.28001 68.2996 5.09001 68.8196 2.10001C71.8296 1.67001 74.9896 2.61001 77.2696 4.95001Z" stroke="#066460" stroke-width="4"/>
<path d="M93.719 17.88C93.429 21.04 91.609 23.69 89.069 25.19C86.849 23.25 85.559 20.31 85.849 17.15C86.139 13.99 87.959 11.34 90.499 9.84003C92.729 11.78 94.019 14.72 93.719 17.88Z" stroke="#066460" stroke-width="4"/>
<path d="M101.82 38.25C100.22 40.99 97.4596 42.63 94.5196 42.91C93.3296 40.21 93.3996 37 94.9996 34.26C96.5996 31.52 99.3596 29.89 102.3 29.6C103.49 32.3 103.42 35.51 101.82 38.25Z" stroke="#066460" stroke-width="4"/>
<path d="M100.539 60.13C97.929 61.94 94.739 62.25 91.959 61.27C92.019 58.32 93.439 55.45 96.049 53.64C98.659 51.84 101.849 51.52 104.629 52.5C104.569 55.44 103.159 58.32 100.539 60.13Z" stroke="#066460" stroke-width="4"/>
<path d="M90.1497 79.4199C87.0197 79.9599 83.9896 78.8899 81.8896 76.8199C83.1896 74.1799 85.6897 72.1699 88.8297 71.6299C91.9597 71.0999 94.9796 72.16 97.0896 74.23C95.7796 76.88 93.2797 78.8799 90.1497 79.4199Z" stroke="#066460" stroke-width="4"/>
<path d="M72.5697 92.5101C69.5097 91.6701 67.2097 89.4301 66.1797 86.6701C68.4797 84.8201 71.5897 84.0601 74.6597 84.9001C77.7197 85.7401 80.0097 87.9801 81.0497 90.7401C78.7497 92.5801 75.6297 93.3401 72.5697 92.5101Z" stroke="#066460" stroke-width="4"/>
<path d="M59.0293 85.86C79.6193 82.27 94.5893 63.61 93.1093 42.3C92.3293 30.91 86.9993 20.92 79.0193 13.97" stroke="#066460" stroke-width="4"/>
<path d="M53.3292 27.6L57.2592 39.69H69.9692L59.6892 47.16L63.6192 59.25L53.3292 51.78L43.0492 59.25L46.9792 47.16L36.6992 39.69H49.4092L53.3292 27.6Z" stroke="#066460" stroke-width="4"/>
</g>
<defs>
<clipPath id="clip0">
<rect width="106.67" height="94.85" fill="white"/>
</clipPath>
</defs>
</svg>
