<svg width="102" height="93" viewBox="0 0 102 93" fill="none" xmlns="http://www.w3.org/2000/svg">
<path d="M46.3703 71.8451C45.6548 71.8451 44.9392 71.813 44.2344 71.7594" stroke="#066460" stroke-width="4"/>
<path d="M39.9836 71.0414C28.8983 68.1907 20.7178 58.1062 20.7178 46.0928C20.7178 31.8716 32.1982 20.3404 46.3806 20.3404C59.0893 20.3404 69.6406 29.6211 71.6804 41.7953" stroke="#066460" stroke-width="4" stroke-dasharray="4.04 4.04"/>
<path d="M71.9365 43.9601C71.9899 44.6675 72.022 45.3855 72.022 46.1035" stroke="#066460" stroke-width="4"/>
<path d="M59.7619 32.5575L53.1513 39.2769L46.5407 45.9963L39.93 39.2769L37.4951 36.8013" stroke="#066460" stroke-width="4"/>
<path d="M55.8535 64.4076C55.8535 59.3815 59.9117 55.3198 64.9097 55.3198C69.9077 55.3198 73.966 59.3922 73.966 64.4076V65.6186C73.966 69.9268 64.8029 74.2349 60.9904 79.8398C57.0496 85.6375 57.1137 90.8566 57.1137 90.8566H75.5786" stroke="#066460" stroke-width="4"/>
<path d="M93.6914 92.8821V54.1089" stroke="#066460" stroke-width="4"/>
<path d="M101.466 78.9503H79.8291L86.632 67.1297L93.4241 55.3198" stroke="#066460" stroke-width="4"/>
<path d="M46.1887 90.5459C21.8501 90.5459 2.13574 70.7628 2.13574 46.35C2.13574 21.9265 21.8501 2.14337 46.1887 2.14337C70.5166 2.14337 90.231 21.9265 90.231 46.35" stroke="#066460" stroke-width="4"/>
<path d="M100.494 34.7866L89.3232 45.9963L78.1631 34.7866" stroke="#066460" stroke-width="4"/>
</svg>
