<svg width="86" height="102" viewBox="0 0 86 102" fill="none" xmlns="http://www.w3.org/2000/svg">
<g clip-path="url(#clip0)">
<path d="M42.73 2C20.23 2 2 20.23 2 42.72C2 65.22 42.73 99.95 42.73 99.95C42.73 99.95 83.46 65.22 83.46 42.72C83.46 20.23 65.23 2 42.73 2Z" stroke="#066460" stroke-width="4" stroke-linecap="round" stroke-linejoin="round"/>
<path d="M42.7398 65.44C30.1798 65.44 20.0098 55.27 20.0098 42.72C20.0098 30.18 30.1798 20.01 42.7398 20.01C55.2898 20.01 65.4498 30.17 65.4498 42.72C65.4498 55.27 55.2898 65.44 42.7398 65.44Z" stroke="#066460" stroke-width="4" stroke-linecap="round" stroke-linejoin="round"/>
<path d="M12.5098 42.72C12.5098 42.05 12.5298 41.38 12.5698 40.72" stroke="#066460" stroke-width="4"/>
<path d="M13.0898 36.8C15.5898 24.22 25.9098 14.45 38.7798 12.77" stroke="#066460" stroke-width="4" stroke-dasharray="3.95 3.95"/>
<path d="M40.75 12.58C41.41 12.54 42.08 12.52 42.75 12.52" stroke="#066460" stroke-width="4"/>
<path d="M47.7305 37.15V36.01C47.7305 34.04 46.1305 32.44 44.1605 32.44H41.3005C39.3305 32.44 37.7305 34.04 37.7305 36.01V38.44C37.7305 39.57 38.6005 40.5 39.7505 41.22L45.1905 43.3" stroke="#066460" stroke-width="4"/>
<path d="M37.7305 47.64V48.78C37.7305 50.75 39.3305 52.35 41.3005 52.35H44.1705C46.1405 52.35 47.7405 50.75 47.7405 48.78V46.35C47.7405 45.22 46.8105 44.24 45.6605 43.51L40.4705 41.51" stroke="#066460" stroke-width="4"/>
<path d="M42.9502 27.55V32.89" stroke="#066460" stroke-width="4"/>
<path d="M42.9502 51.48V56.82" stroke="#066460" stroke-width="4"/>
</g>
<defs>
<clipPath id="clip0">
<rect width="85.46" height="101.95" fill="white"/>
</clipPath>
</defs>
</svg>
