<svg width="135" height="71" viewBox="0 0 135 71" fill="none" xmlns="http://www.w3.org/2000/svg">
<path d="M29.3975 44.4124C30.1196 45.4123 31.0305 46.301 32.1192 46.9898C32.0859 46.2788 32.2192 45.5567 32.5636 44.8679L34.0633 41.8684C35.1187 39.7577 37.6961 38.9023 39.8068 39.9576C41.9176 41.013 42.773 43.5792 41.7065 45.69L40.2068 48.7006C39.8513 49.4005 39.3291 49.9671 38.707 50.367L42.0842 52.0556C42.0287 51.3224 42.1731 50.567 42.5175 49.8671L46.0724 42.7683C47.1278 40.6575 49.6941 39.8021 51.8048 40.8575C53.9156 41.9129 54.771 44.4791 53.7156 46.5899L50.1606 53.6887C49.8052 54.3997 49.283 54.9551 48.672 55.3551L51.6604 56.8548C51.6049 56.1216 51.7493 55.3662 52.0937 54.6663L56.4818 45.89C57.5372 43.7792 60.1034 42.9238 62.2142 43.9792C64.3249 45.0346 65.1804 47.6119 64.125 49.7227L59.7257 58.4879C59.3702 59.1877 58.8481 59.7543 58.226 60.1542L61.2255 61.654C61.1699 60.9097 61.3143 60.1654 61.6587 59.4544L63.1585 56.4549C64.2138 54.3441 66.7912 53.4887 68.8908 54.5441C71.0016 55.5995 71.8681 58.1657 70.8127 60.2765L69.3019 63.2871C68.9575 63.9647 68.4576 64.5091 67.8799 64.909C68.1021 64.9868 68.3354 65.0756 68.5576 65.1423L74.2233 67.964C76.334 69.0305 78.9003 68.1751 79.9557 66.0644C80.7222 64.5424 80.4889 62.7871 79.5113 61.5207C79.7557 61.1985 79.9779 60.843 80.189 60.4875L83.8217 62.2983C85.9324 63.3537 88.4987 62.4983 89.554 60.3987C90.6094 58.2879 89.754 55.7105 87.6433 54.6552L84.0439 52.8555L84.4216 52.1112L92.8757 56.3438C94.9865 57.3992 97.5527 56.5437 98.6081 54.433C99.6635 52.3222 98.8192 49.756 96.6973 48.6895L88.1987 44.4458C88.3098 44.1791 88.3987 43.9236 88.4765 43.657L100.908 49.8782C103.007 50.9447 105.585 50.0782 106.64 47.9674C107.695 45.8566 106.84 43.2904 104.729 42.235L83.1773 31.4368C82.0775 31.3924 80.9555 31.2591 79.8335 31.0036C75.4897 30.0482 71.9348 27.693 69.8018 24.738L61.3699 25.6711L61.0699 27.2709C60.2478 31.2813 56.3374 33.8698 52.3158 33.0588L49.894 32.5589C49.794 32.5367 49.6941 32.5033 49.5941 32.4811L52.5825 17.928L63.2251 15.7284L68.6464 14.6841L73.8233 15.8283L72.2569 10.8514L72.1347 10.8403L61.4365 9.7738L55.9375 9.2961L38.3182 15.1618" stroke="#066460" stroke-width="4"/>
<path d="M101.141 14.5174L87.8762 18.9278L68.535 14.6507L52.7043 17.8835L52.5821 17.9057L49.5938 32.4588C49.6937 32.481 49.7937 32.5144 49.8937 32.5366L52.3155 33.0365C56.326 33.8475 60.2475 31.259 61.0696 27.2486L61.3696 25.6489L69.7126 24.7823C69.7126 24.7823 72.2788 27.5263 74.0896 28.6483C74.1007 28.6595 74.1119 28.6706 74.123 28.6706C74.3229 28.7928 74.5118 28.915 74.7118 29.0261C74.7451 29.0483 74.7784 29.0594 74.8117 29.0705C75.0006 29.1816 75.1784 29.2816 75.3783 29.3705C75.4228 29.3927 75.4783 29.4149 75.5227 29.4482C75.7005 29.526 75.8782 29.626 76.056 29.7037C76.1226 29.7371 76.2004 29.7593 76.2671 29.7926C76.4337 29.8704 76.6003 29.937 76.767 30.0148C76.8558 30.0481 76.9558 30.0814 77.0447 30.1259C77.2002 30.1814 77.3447 30.237 77.5002 30.3036C77.6224 30.3481 77.7446 30.3814 77.8668 30.4258C78.0001 30.4703 78.1223 30.5147 78.2556 30.5591C78.4111 30.6147 78.5778 30.648 78.7333 30.7036C78.8333 30.7369 78.9333 30.7591 79.0444 30.7924C79.311 30.8591 79.5776 30.9257 79.8442 30.9813C80.122 31.0479 80.3997 31.0924 80.6774 31.1479C80.7108 31.159 80.7441 31.159 80.7885 31.1701C81.0329 31.2146 81.2773 31.2479 81.5217 31.2812C81.5439 31.2812 81.5662 31.2812 81.5773 31.2923C81.8328 31.3257 82.0994 31.3479 82.366 31.3812H82.3771C82.6549 31.4034 82.9326 31.4146 83.1992 31.4257L104.607 42.135L110.372 40.2131" stroke="#066460" stroke-width="4"/>
<path d="M68.9244 54.544C66.8137 53.4886 64.2474 54.344 63.1921 56.4548L61.6923 59.4543C60.6369 61.565 61.4923 64.1313 63.6031 65.1978C65.7139 66.2531 68.2801 65.3977 69.3466 63.287L70.8574 60.2764C71.9017 58.1656 71.0463 55.5994 68.9244 54.544Z" stroke="#066460" stroke-width="4"/>
<path d="M39.8067 39.9686C37.6959 38.9021 35.1186 39.7575 34.0632 41.8794L32.5635 44.8789C31.5081 46.9897 32.3524 49.567 34.4742 50.6224C36.585 51.6778 39.1623 50.8224 40.2066 48.7116L41.7064 45.701C42.7617 43.5902 41.9063 41.024 39.8067 39.9686Z" stroke="#066460" stroke-width="4"/>
<path d="M62.2367 43.9791C60.1259 42.9237 57.5597 43.7791 56.5043 45.8899L52.1161 54.6662C51.0496 56.7769 51.9162 59.3432 54.0269 60.3986C56.1377 61.4539 58.7039 60.5985 59.7593 58.4878L64.1586 49.7226C65.1917 47.6007 64.3363 45.0345 62.2367 43.9791Z" stroke="#066460" stroke-width="4"/>
<path d="M51.8156 40.8574C49.7048 39.802 47.1386 40.6463 46.0832 42.7682L42.5282 49.867C41.4729 51.9778 42.3283 54.544 44.439 55.5994C46.5498 56.6548 49.116 55.7994 50.1714 53.6886L53.7264 46.5898C54.7706 44.479 53.9263 41.9017 51.8156 40.8574Z" stroke="#066460" stroke-width="4"/>
<path d="M120.662 5.8091L101.107 12.3129L112.429 46.3516L131.983 39.8478L120.662 5.8091Z" stroke="#066460" stroke-width="4"/>
<path d="M15.8965 3L3 41.7467L27.0639 49.7562L39.9604 11.0095L15.8965 3Z" stroke="#066460" stroke-width="4"/>
<path d="M24.0433 40.291L19.5996 38.8135" stroke="#066460" stroke-width="4"/>
<path d="M115.328 37.5581L119.15 36.3139" stroke="#066460" stroke-width="4"/>
</svg>
