<svg width="95" height="92" viewBox="0 0 95 92" fill="none" xmlns="http://www.w3.org/2000/svg">
<path d="M65.7041 91.174V71.7268" stroke="#066460" stroke-width="4"/>
<path d="M28.625 71.7268V91.174" stroke="#066460" stroke-width="4"/>
<path d="M55.6787 50.9466C55.6787 50.9466 62.3165 50.8645 65.9604 50.9466C68.9451 51.0105 71.8383 52.444 74.1088 54.7082C78.1831 58.7711 78.1831 65.354 74.1088 69.4169C70.8495 72.6672 65.5667 72.6672 62.3073 69.4169C59.698 66.8148 59.698 62.6058 62.3073 60.0037C64.3948 57.922 67.7732 57.922 69.8607 60.0037C71.527 61.6654 71.527 64.3679 69.8607 66.0296" stroke="#066460" stroke-width="4"/>
<path d="M56.0271 50.9466C56.0271 50.9466 32.0212 50.8644 28.3682 50.9466C25.3835 51.0105 22.4903 52.444 20.2197 54.7082C16.1455 58.7711 16.1455 65.354 20.2197 69.4169C23.4791 72.6672 28.7619 72.6672 32.0212 69.4169C34.6306 66.8148 34.6306 62.6058 32.0212 60.0037C29.9338 57.922 26.5554 57.922 24.4679 60.0037C22.8016 61.6654 22.8016 64.3679 24.4679 66.0296" stroke="#066460" stroke-width="4"/>
<path d="M32.0947 60.9167H62.0059" stroke="#066460" stroke-width="4"/>
<path d="M36.9287 91.174V74.685" stroke="#066460" stroke-width="4"/>
<path d="M47.3477 91.174V69.1338" stroke="#066460" stroke-width="4"/>
<path d="M57.7578 91.174V74.685" stroke="#066460" stroke-width="4"/>
<path d="M47.1647 13.2118L51.6693 22.3054L61.7221 23.7571L54.4434 30.8329L56.1646 40.8304L47.1647 36.1102L38.1648 40.8304L39.8861 30.8329L32.6074 23.7571L42.6694 22.3054L47.1647 13.2118Z" stroke="#066460" stroke-width="4"/>
<path d="M74.6309 82.7925C75.1161 82.4182 75.5922 82.0438 76.0591 81.6512" stroke="#066460" stroke-width="4"/>
<path d="M78.751 79.2318C87.1283 71.0603 92.3378 59.6568 92.3378 47.0481C92.3378 22.1685 72.1132 2 47.1643 2C22.2155 2 2 22.1685 2 47.0389C2 60.305 7.75884 72.229 16.9052 80.4643" stroke="#066460" stroke-width="4" stroke-dasharray="3.96 3.96"/>
<path d="M18.2695 81.6512C18.7365 82.0438 19.2125 82.4182 19.6978 82.7925" stroke="#066460" stroke-width="4"/>
</svg>
