<svg width="22" height="22" viewBox="0 0 22 22" fill="none" xmlns="http://www.w3.org/2000/svg">
<g clip-path="url(#clip0)">
<path d="M16.0659 0.00445734L13.2879 0C10.1669 0 8.14993 2.06932 8.14993 5.27214V7.70295H5.35674C5.11538 7.70295 4.91992 7.89863 4.91992 8.13999V11.662C4.91992 11.9033 5.1156 12.0988 5.35674 12.0988H8.14993V20.9858C8.14993 21.2272 8.34539 21.4226 8.58675 21.4226H12.2311C12.4724 21.4226 12.6679 21.227 12.6679 20.9858V12.0988H15.9338C16.1752 12.0988 16.3706 11.9033 16.3706 11.662L16.3719 8.13999C16.3719 8.0241 16.3258 7.91312 16.244 7.8311C16.1622 7.74909 16.0508 7.70295 15.9349 7.70295H12.6679V5.64232C12.6679 4.6519 12.9039 4.14912 14.1941 4.14912L16.0655 4.14845C16.3066 4.14845 16.5021 3.95277 16.5021 3.71163V0.441277C16.5021 0.200357 16.3069 0.00490307 16.0659 0.00445734Z" fill="white"/>
</g>
<defs>
<clipPath id="clip0">
<rect width="21.4229" height="21.4226" fill="white"/>
</clipPath>
</defs>
</svg>
