<svg width="25" height="15" viewBox="0 0 25 15" fill="none" xmlns="http://www.w3.org/2000/svg">
<path d="M2.67062 1.31707H22.2552L12.4629 8.04878L2.67062 1.31707ZM16.6172 9.21951L22.4036 13.6829H2.52226L8.38279 9.21951C8.67953 9 8.67953 8.63415 8.53116 8.34146C8.38279 8.04878 7.93769 8.04878 7.64095 8.19512L1.33531 13.0244V1.82927L12.1662 9.21951C12.2404 9.29268 12.3887 9.36585 12.5371 9.36585C12.6855 9.36585 12.7596 9.29268 12.908 9.21951L23.6647 1.82927V13.0244L17.3591 8.19512C17.0623 7.97561 16.6914 8.04878 16.4688 8.34146C16.3205 8.63415 16.3947 9 16.6172 9.21951ZM25 1.2439C25 0.512195 24.4065 0 23.7389 0H1.26113C0.964392 0 0.593472 0.146341 0.37092 0.365854C0.148368 0.658537 0 0.95122 0 1.31707V13.7561C0 14.122 0.148368 14.4146 0.37092 14.6341C0.593472 14.8537 0.964392 15 1.26113 15H23.6647C24.4065 15 24.9258 14.4146 24.9258 13.7561L25 1.2439Z" fill="white" fill-opacity="0.6"/>
</svg>
