<svg width="90" height="96" viewBox="0 0 90 96" fill="none" xmlns="http://www.w3.org/2000/svg">
<g clip-path="url(#clip0)">
<path d="M86.26 51.08C86.26 74.35 67.39 93.21 44.13 93.21C20.86 93.21 2 74.34 2 51.08C2 27.81 20.86 8.94995 44.13 8.94995" stroke="#066460" stroke-width="4"/>
<path d="M67.0098 65.57C63.5898 81.7 54.6298 93.21 44.1298 93.21C30.6698 93.21 19.7598 74.35 19.7598 51.08C19.7598 27.82 30.6698 8.95996 44.1298 8.95996" stroke="#066460" stroke-width="4"/>
<path d="M44.1299 43.3999V93.1999C67.3899 93.1999 86.2599 74.3399 86.2599 51.0699C86.2599 48.7199 86.0699 46.4199 85.6999 44.1799" stroke="#066460" stroke-width="4"/>
<path d="M45.93 36.22H4.74C3 40.85 2 45.84 2 51.08C2 56.32 3 61.31 4.74 65.93H83.52C85.26 61.31 86.26 56.32 86.26 51.08" stroke="#066460" stroke-width="4"/>
<path d="M67.0302 2C55.6402 2 46.4102 11.23 46.4102 22.61C46.4102 34 67.0302 51.58 67.0302 51.58C67.0302 51.58 87.6502 34 87.6502 22.61C87.6502 11.23 78.4202 2 67.0302 2ZM67.0302 32.84C61.3702 32.84 56.7902 28.26 56.7902 22.61C56.7902 16.96 61.3702 12.38 67.0302 12.38C72.6802 12.38 77.2502 16.96 77.2502 22.61C77.2602 28.26 72.6902 32.84 67.0302 32.84Z" stroke="#066460" stroke-width="4"/>
<path d="M67.03 32.84C61.37 32.84 56.79 28.26 56.79 22.61C56.79 16.96 61.37 12.38 67.03 12.38C72.68 12.38 77.25 16.96 77.25 22.61C77.26 28.26 72.69 32.84 67.03 32.84Z" stroke="#066460" stroke-width="4"/>
</g>
<defs>
<clipPath id="clip0">
<rect width="89.65" height="95.21" fill="white"/>
</clipPath>
</defs>
</svg>
