<svg width="22" height="21" viewBox="0 0 22 21" fill="none" xmlns="http://www.w3.org/2000/svg">
<path fill-rule="evenodd" clip-rule="evenodd" d="M0.000513077 8.94348C0.00366707 4.03086 4.2319 0 9.38073 0C14.5315 0 18.761 4.03387 18.761 8.94898C18.761 10.8538 18.138 12.6012 17.0751 14.0514L21.5024 18.2748C21.8069 18.5653 22 18.9587 22 19.3941C22 19.8296 21.8069 20.2229 21.5024 20.5134C21.1557 20.8442 20.7378 21 20.3046 21C19.7257 21 19.3226 20.7194 19.1067 20.5134L14.6787 16.2893C13.1585 17.3036 11.3266 17.898 9.32992 17.898C4.18752 17.898 -0.0536493 13.9192 0.000513077 8.94348ZM9.32992 3.16327C5.99564 3.16327 3.26435 5.7697 3.26435 8.94898C3.26435 12.1283 5.99564 14.7347 9.32992 14.7347C12.6642 14.7347 15.3955 12.1283 15.3955 8.94898C15.3955 5.7697 12.6642 3.16327 9.32992 3.16327Z" fill="#17A9A3"/>
</svg>
