<svg width="89" height="44" viewBox="0 0 89 44" fill="none" xmlns="http://www.w3.org/2000/svg">
<g clip-path="url(#clip0)">
<path d="M78.3038 43.9991H16.0122C15.6404 43.9991 15.2806 43.8341 15.0528 43.5395C14.8129 43.2566 14.729 42.8794 14.8129 42.514L16.5279 34.9587C16.6718 34.3104 17.3315 33.8979 18.0031 34.0393C18.6627 34.1808 19.0824 34.829 18.9385 35.4891L17.5593 41.5711H77.3324L86.2312 2.42722H26.4701L25.1389 8.29703C24.995 8.9453 24.3354 9.36962 23.6637 9.2164C23.0041 9.07496 22.5844 8.42668 22.7283 7.76662L24.2754 0.942087C24.3953 0.388109 24.899 -0.000854492 25.4747 -0.000854492H87.7663C88.1381 -0.000854492 88.4979 0.16416 88.7257 0.458829C88.9656 0.741712 89.0495 1.11889 88.9656 1.48428L79.5151 43.0562C79.3832 43.5984 78.8915 43.9991 78.3038 43.9991Z" fill="#066460"/>
<path d="M49.9767 31.6592C49.6169 31.6592 49.2691 31.506 49.0292 31.2231L24.5275 1.98014C24.0958 1.46152 24.1678 0.695379 24.6954 0.271055C25.2231 -0.153269 26.0027 -0.082548 26.4344 0.43607L50.1566 28.7597L87.011 0.259268C87.5507 -0.153269 88.3183 -0.0589745 88.738 0.459643C89.1578 0.990048 89.0618 1.7444 88.5341 2.15694L50.7322 31.3999C50.5044 31.5767 50.2405 31.6592 49.9767 31.6592Z" fill="#066460"/>
<path d="M16.0227 43.9999C15.6629 43.9999 15.2911 43.8467 15.0513 43.5402C14.6315 43.0098 14.7275 42.2555 15.2551 41.8429L42.1314 21.0511C42.6591 20.6386 43.4387 20.7329 43.8584 21.2515C44.2782 21.7819 44.1822 22.5362 43.6546 22.9488L16.7783 43.7406C16.5504 43.9174 16.2865 43.9999 16.0227 43.9999Z" fill="#066460"/>
<path d="M78.3149 44C77.9551 44 77.6073 43.8467 77.3674 43.5639L59.9416 22.772C59.5099 22.2534 59.5818 21.4872 60.1095 21.0629C60.6372 20.6386 61.4167 20.7093 61.8485 21.2279L79.2623 42.0198C79.6941 42.5384 79.6221 43.3046 79.0944 43.7289C78.8665 43.9057 78.5907 44 78.3149 44Z" fill="#066460"/>
<path d="M25.4833 14.8866H5.92278C5.23918 14.8866 4.6875 14.3444 4.6875 13.6726C4.6875 13.0007 5.23918 12.4586 5.92278 12.4586H25.4833C26.1669 12.4586 26.7186 13.0007 26.7186 13.6726C26.7186 14.3444 26.155 14.8866 25.4833 14.8866Z" fill="#066460"/>
<path d="M20.7839 31.5296H1.23528C0.551678 31.5296 0 30.9874 0 30.3155C0 29.6437 0.551678 29.1015 1.23528 29.1015H20.7958C21.4794 29.1015 22.0311 29.6437 22.0311 30.3155C22.0191 30.9874 21.4675 31.5296 20.7839 31.5296Z" fill="#066460"/>
<path d="M20.7826 23.2081H9.31731C8.63371 23.2081 8.08203 22.6659 8.08203 21.9941C8.08203 21.3222 8.63371 20.78 9.31731 20.78H20.7946C21.4782 20.78 22.0299 21.3222 22.0299 21.9941C22.0179 22.6659 21.4662 23.2081 20.7826 23.2081Z" fill="#066460"/>
</g>
<defs>
<clipPath id="clip0">
<rect width="89" height="44" fill="white"/>
</clipPath>
</defs>
</svg>
