<svg width="25" height="19" viewBox="0 0 25 19" fill="none" xmlns="http://www.w3.org/2000/svg">
<path d="M24.4279 2.95808C24.0275 2.61677 23.5698 2.38922 23.0549 2.38922H17.1053V1.30838C17.1053 0.967066 16.9908 0.625749 16.7048 0.398204C16.476 0.170659 16.1327 0 15.7895 0H9.21053C8.86728 0 8.52403 0.113772 8.29519 0.398204C8.06636 0.625749 7.89474 0.967066 7.89474 1.30838V2.38922H1.94508C1.43021 2.38922 0.915332 2.61677 0.572082 2.95808C0.228833 3.35629 0 3.81138 0 4.32335V17.009C0 17.521 0.228833 18.0329 0.572082 18.3743C0.915332 18.7725 1.43021 18.9431 1.94508 18.9431H22.9977C23.5126 18.9431 24.0275 18.7156 24.3707 18.3743C24.7712 18.0329 24.9428 17.521 24.9428 17.009V4.32335C25 3.81138 24.8284 3.35629 24.4279 2.95808ZM9.21053 1.2515H15.7895C15.7895 1.2515 15.7895 1.2515 15.8467 1.2515V2.33234H9.15332L9.21053 1.2515C9.15332 1.2515 9.15332 1.2515 9.21053 1.2515ZM14.4737 11.8323H10.5835C10.2403 11.8323 9.95423 12.1168 9.95423 12.4581V12.9132H1.25858V4.38024C1.25858 4.20958 1.31579 4.03892 1.48741 3.86826C1.60183 3.75449 1.83066 3.64072 2.00229 3.64072H23.0549C23.2265 3.64072 23.3982 3.6976 23.5698 3.86826C23.6842 3.98204 23.7414 4.15269 23.7414 4.38024V12.9132H15.0458V12.4581C15.0458 12.1168 14.8169 11.8323 14.4737 11.8323ZM11.2128 14.6766V13.0838H13.8444V14.6766H11.2128ZM1.25858 14.1647H9.95423V15.3024C9.95423 15.6437 10.2403 15.9281 10.5835 15.9281H14.4737C14.8169 15.9281 15.103 15.6437 15.103 15.3024V14.1647H23.7986V17.0659C23.7986 17.2365 23.7414 17.4072 23.5698 17.5778C23.4554 17.6916 23.2265 17.8054 23.0549 17.8054H1.94508C1.77346 17.8054 1.54462 17.7485 1.43021 17.5778C1.31579 17.4641 1.20137 17.2934 1.20137 17.0659V14.1647H1.25858Z" fill="white" fill-opacity="0.6"/>
</svg>
