<svg width="23" height="22" viewBox="0 0 23 22" fill="none" xmlns="http://www.w3.org/2000/svg">
<path d="M22 4.52055C21.8488 2.56164 19.5052 0.376712 19.2027 0.150685C19.2027 0.150685 19.0515 0 18.7491 0C18.3711 0 18.2955 0.226027 18.2955 0.226027L13.6082 4.82192C13.1546 5.27397 13.1546 6.0274 13.6082 6.47945L14.8179 7.68493L7.71134 14.7671L6.50172 13.4863C6.04811 13.0342 5.2921 13.0342 4.83849 13.4863L0.226804 18.0822C0.226804 18.0822 0 18.3082 0 18.6096C0 18.8356 0.151203 19.0616 0.151203 19.0616C0.378007 19.363 2.57045 21.6233 4.53608 21.8493C4.68728 21.8493 4.76289 21.8493 4.91409 21.8493C7.56014 21.8493 11.7182 19.363 15.6495 15.4452C17.6151 13.4863 19.2783 11.4521 20.4124 9.49315C21.244 8.13699 22.1512 6.10274 22 4.52055ZM19.2027 8.89041C18.1443 10.774 16.5567 12.7329 14.6667 14.6164C11.1134 18.1575 7.10653 20.5685 4.91409 20.5685C4.83849 20.5685 4.76289 20.5685 4.68728 20.5685C3.85567 20.4931 2.79725 19.7397 2.04124 19.0616C1.81443 18.8356 1.81443 18.5342 2.04124 18.3082L5.3677 14.9931C5.5945 14.7671 5.89691 14.7671 6.04811 14.9931L7.40893 16.3493C7.56014 16.5 7.86254 16.5 8.01375 16.3493L16.4055 7.9863C16.5567 7.83562 16.5567 7.53425 16.4055 7.38356L15.1203 6.0274C14.8935 5.80137 14.8935 5.42466 15.1203 5.19863L18.3711 1.9589C18.5979 1.73288 18.9759 1.73288 19.2027 1.9589C19.8832 2.71233 20.6392 3.76712 20.7148 4.59589C20.7148 5.57534 20.2612 7.15753 19.2027 8.89041Z" fill="white" fill-opacity="0.6"/>
</svg>
