<svg width="24" height="19" viewBox="0 0 24 19" fill="none" xmlns="http://www.w3.org/2000/svg">
<path d="M0 16.2621C0 16.2621 6.89604 21.1991 14.138 17.8139C21.3799 14.4359 21.034 8.4811 21.034 8.4811L24 6.85706L21.034 5.83933C21.012 3.3347 18.9218 1.30645 16.3459 1.30645C13.7774 1.30645 11.6946 3.32026 11.6578 5.81046C10.7452 5.5867 9.52346 5.16806 7.97056 4.40295C4.53358 2.70673 3.08372 0 3.08372 0C3.08372 0 2.19319 1.94163 1.85465 3.24808C0.728611 7.57164 2.40662 11.2456 4.06256 12.6026C5.15179 13.4976 6.04232 13.7791 6.49126 13.8657C3.82705 15.7207 0 16.2621 0 16.2621ZM17.4646 4.12867C18.8114 4.12867 18.8114 6.17857 17.4646 6.17857C16.1178 6.17135 16.1178 4.12867 17.4646 4.12867Z" fill="#17A9A3"/>
</svg>
