<svg width="23" height="24" viewBox="0 0 23 24" fill="none" xmlns="http://www.w3.org/2000/svg">
<path d="M11.4194 11.9958C11.4999 11.9958 11.4999 11.9958 11.4999 11.9958C11.4999 11.9958 11.4999 11.9958 11.5804 11.9958C12.949 11.9958 13.9957 11.5127 14.8007 10.5466C16.5719 8.5339 16.2499 5.07203 16.2499 4.75C16.1694 2.25424 14.9618 1.12712 13.9957 0.563559C13.2711 0.241525 12.466 0 11.4999 0C11.0168 0 9.97023 0.0805085 9.00413 0.644068C8.03803 1.20763 6.8304 2.33475 6.66938 4.83051C6.66938 5.15254 6.34735 8.61441 8.11854 10.6271C8.92362 11.5127 10.0507 11.9958 11.4194 11.9958ZM7.95752 4.99153C7.95752 4.91102 7.95752 4.91102 7.95752 4.99153C8.11854 1.61017 10.4533 1.28814 11.4999 1.28814C12.7075 1.28814 14.8812 1.85169 15.0423 4.99153C15.0423 4.99153 15.3643 8.13136 13.9151 9.82203C13.3516 10.4661 12.5465 10.7881 11.4999 10.7881C10.4533 10.7881 9.72871 10.4661 9.08464 9.82203C7.63549 8.13136 7.95752 4.99153 7.95752 4.99153Z" fill="white" fill-opacity="0.6"/>
<path d="M23 19.1135C23 19.0278 23 19.0278 23 18.9421C23 17.9991 22.9025 15.6844 20.4661 14.9986C20.4661 14.9986 20.4661 14.9986 20.3686 14.9986C17.8347 14.3985 15.7881 13.1126 15.6907 13.1126C15.3008 12.9412 14.911 12.9412 14.6186 13.2841C14.4237 13.627 14.4237 13.9699 14.8136 14.2271C14.911 14.3128 17.1525 15.6844 19.8814 16.2845C21.1483 16.7132 21.3432 17.9134 21.3432 19.0278C21.3432 19.1135 21.3432 19.1135 21.3432 19.1135C21.3432 19.5422 21.3432 20.228 21.2458 20.6566C20.3686 21.0853 16.7627 22.7141 11.4025 22.7141C6.04237 22.7141 2.43644 21.171 1.55932 20.6566C1.46186 20.228 1.46186 19.5422 1.46186 19.1135V19.0278C1.46186 17.9134 1.65678 16.7132 2.92373 16.2845C5.75 15.6844 7.89407 14.3128 7.99153 14.2271C8.38136 14.0556 8.38136 13.627 8.18644 13.2841C7.99152 12.9412 7.50424 12.9412 7.11441 13.1126C7.11441 13.1126 4.97034 14.3985 2.43644 14.9986C2.43644 14.9986 2.43644 14.9986 2.33898 14.9986C0.0974578 15.7702 0 17.9991 0 19.0278V19.1135C0 19.3707 0 20.6566 0.292373 21.3425C0.38983 21.4282 0.487288 21.5996 0.584746 21.6854C0.779661 21.7711 4.77542 24 11.5 24C18.2246 24 22.2203 21.7711 22.4153 21.6854C22.5127 21.5996 22.6102 21.5139 22.7076 21.3425C23 20.7424 23 19.3707 23 19.1135Z" fill="white" fill-opacity="0.6"/>
</svg>
