<svg width="20" height="20" viewBox="0 0 20 20" fill="none" xmlns="http://www.w3.org/2000/svg">
<path d="M3.99061 13.9906C5.46166 16.1502 7.46479 17.23 10 17.23C12.5352 17.23 14.5383 16.1502 16.0094 13.9906C15.9781 13.1142 15.2739 12.3787 13.8967 11.784C12.5196 11.1894 11.2207 10.892 10 10.892C8.77934 10.892 7.48044 11.1894 6.10329 11.784C4.72613 12.3474 4.02191 13.0829 3.99061 13.9906ZM12.1127 3.89671C11.518 3.30203 10.8138 3.00469 10 3.00469C9.18623 3.00469 8.482 3.30203 7.88732 3.89671C7.29264 4.49139 6.99531 5.19562 6.99531 6.00939C6.99531 6.82316 7.29264 7.52739 7.88732 8.12207C8.482 8.71675 9.18623 9.01408 10 9.01408C10.8138 9.01408 11.518 8.71675 12.1127 8.12207C12.7074 7.52739 13.0047 6.82316 13.0047 6.00939C13.0047 5.19562 12.7074 4.49139 12.1127 3.89671ZM2.9108 2.95775C4.88263 0.985916 7.2457 0 10 0C12.7543 0 15.1017 0.985916 17.0423 2.95775C19.0141 4.89828 20 7.2457 20 10C20 12.7543 19.0141 15.1174 17.0423 17.0892C15.1017 19.0297 12.7543 20 10 20C7.2457 20 4.88263 19.0297 2.9108 17.0892C0.970266 15.1174 0 12.7543 0 10C0 7.2457 0.970266 4.89828 2.9108 2.95775Z" fill="#17A9A3"/>
</svg>
